<?xml version="1.0" standalone="no"?>
<!DOCTYPE svg PUBLIC "-//W3C//DTD SVG 20010904//EN"
 "http://www.w3.org/TR/2001/REC-SVG-20010904/DTD/svg10.dtd">
<svg version="1.0" xmlns="http://www.w3.org/2000/svg"
 width="512.000000pt" height="512.000000pt" viewBox="0 0 512.000000 512.000000"
 preserveAspectRatio="xMidYMid meet">
<metadata>
Created by potrace 1.14, written by Peter Selinger 2001-2017
</metadata>
<g transform="translate(0.000000,512.000000) scale(0.100000,-0.100000)"
fill="#000000" stroke="none">
<path d="M2789 4696 c-2 -2 -31 -6 -64 -10 -72 -8 -218 -46 -301 -80 -271
-111 -525 -339 -650 -588 -18 -36 -38 -69 -43 -72 -5 -3 -28 1 -52 9 -72 26
-258 22 -311 -6 -10 -5 -18 -7 -18 -4 0 9 -98 -44 -148 -80 -49 -35 -112 -104
-146 -158 -27 -45 -66 -145 -68 -179 -3 -37 -12 -44 -68 -52 -168 -25 -396
-133 -529 -251 -152 -134 -277 -321 -335 -501 -48 -149 -65 -363 -41 -524 12
-86 51 -207 96 -307 66 -143 224 -329 360 -426 107 -76 270 -149 391 -176 24
-6 57 -13 73 -17 17 -3 142 -8 278 -11 l249 -5 -2 23 c-5 53 -3 54 60 54 l60
0 1 -50 c0 -27 0 -227 0 -443 l0 -392 355 0 354 0 0 440 0 440 70 0 69 0 267
-328 c147 -180 297 -363 333 -407 36 -44 75 -91 86 -104 11 -14 31 -38 45 -54
l26 -29 189 234 c104 128 224 274 265 324 41 50 89 108 105 129 17 21 35 43
40 49 6 6 33 39 60 74 96 121 81 111 178 118 48 3 87 2 86 -3 -1 -4 -1 -21 0
-37 1 -28 1 -28 55 -22 231 25 509 173 670 357 115 132 224 336 251 470 29
141 33 190 30 324 -2 77 -10 149 -18 178 -8 26 -13 47 -11 47 6 0 -58 174 -82
223 -110 216 -284 391 -499 500 -79 40 -241 97 -276 97 -39 0 -46 12 -54 85
-54 549 -478 1012 -1025 1120 -76 15 -350 31 -361 21z"/>
</g>
</svg>
